<svg width="948" height="1342" viewBox="0 0 948 1342" fill="none" xmlns="http://www.w3.org/2000/svg">
<path opacity="0.25" fill-rule="evenodd" clip-rule="evenodd" d="M705.488 1065.54C477.37 1326.79 188.698 1418.51 60.6801 1270.36C-67.3383 1122.21 13.8128 790.333 241.931 529.02C342.459 413.894 454.734 331.756 559.853 288.499C572.248 134.141 559.279 6.59714 521.033 -36.3418C463.625 -100.864 370.938 49.8105 314.026 300.224C302.408 351.353 293.248 402.631 286.394 452.468L277.405 462.196C284.396 405.005 294.462 346.268 307.66 288.179L307.691 288.214C370.241 12.8547 479.346 -144.765 551.405 -63.8548C623.433 17.0201 631.137 305.848 568.556 581.172C506.006 856.531 396.902 1014.15 324.843 933.241C276.569 879.006 257.226 731.373 268.529 557.042C270.899 554.681 273.422 552.073 275.915 549.5C264.07 702.081 277.097 827.803 315.011 870.404C372.419 934.927 465.108 784.251 522.019 533.838C539.156 458.406 551.089 382.526 557.831 311.551C459.826 352.721 350.726 434.135 251.571 547.689C44.1098 785.275 -41.3499 1073.6 60.7091 1191.71C162.768 1309.82 413.668 1212.95 621.13 975.362C828.59 737.776 914.05 449.448 811.991 331.339C770.126 282.889 703.155 270.67 624.453 289.458L624.421 289.493L624.22 266.719C731.815 238.2 826.882 255.009 886.769 324.313C1014.76 472.428 933.606 804.302 705.488 1065.54Z" fill="white"></path>
</svg>