<svg width="185" height="36" viewBox="0 0 185 36" fill="none" xmlns="http://www.w3.org/2000/svg">
<g clip-path="url(#clip0_3361_1712)">
<path d="M54.6547 5.10658C61.0182 5.10658 66.3097 9.75167 67.3963 15.8719H72.0533C70.9259 7.16877 63.5662 0.451172 54.6547 0.451172C44.963 0.451172 37.1074 8.39753 37.1074 18.1981C37.1074 27.9986 44.9644 35.945 54.6547 35.945C63.5662 35.945 70.9259 29.2274 72.0533 20.5258H67.3963C66.3111 26.646 61.0197 31.2911 54.6547 31.2911C47.5051 31.2911 41.709 25.429 41.709 18.1981C41.709 10.9672 47.5051 5.10511 54.6547 5.10511V5.10658Z" fill="#81A9B4"></path>
<path d="M35.0946 18.1981C35.0946 8.39753 27.2391 0.451172 17.5473 0.451172C7.85553 0.451172 0 8.39753 0 18.1981C0 27.9986 7.85699 35.945 17.5473 35.945C21.6034 35.945 25.3387 34.5525 28.3097 32.216L31.9851 35.9332L35.1355 32.747L31.4527 29.0224C33.7353 26.0264 35.0932 22.2723 35.0932 18.1981H35.0946ZM28.1623 25.6931L19.7336 17.1685L16.5832 20.3547L25.0207 28.8881C22.9103 30.4001 20.3316 31.2896 17.5473 31.2896C10.3977 31.2896 4.6016 25.4275 4.6016 18.1966C4.6016 10.9657 10.3977 5.10658 17.5473 5.10658C24.6969 5.10658 30.493 10.9686 30.493 18.1996C30.493 20.9875 29.6311 23.5719 28.1623 25.6945V25.6931Z" fill="#81A9B4"></path>
<path d="M94.3379 8.28654C94.3379 6.73031 94.0535 5.36142 93.4832 4.18134C92.9129 3.00126 92.0961 2.0808 91.0285 1.42143C89.9623 0.762063 88.6832 0.431641 87.1926 0.431641C85.702 0.431641 84.4244 0.762063 83.3611 1.42143C82.2979 2.0808 81.4811 3.00126 80.9123 4.18134C80.3435 5.36142 80.0576 6.73031 80.0576 8.28654C80.0576 9.84277 80.342 11.2117 80.9123 12.3917C81.4826 13.5718 82.2979 14.4923 83.3611 15.1517C84.4244 15.811 85.7006 16.1414 87.1926 16.1414C88.6847 16.1414 89.9623 15.811 91.0285 15.1517C91.1408 15.0823 91.2488 15.0086 91.3552 14.9333L92.5556 16.1414L94.0987 14.5601L92.9144 13.3624C93.1244 13.06 93.3155 12.7399 93.4832 12.3932C94.052 11.2131 94.3379 9.84425 94.3379 8.28802V8.28654ZM91.1948 11.1777C91.1525 11.2825 91.1058 11.3857 91.0577 11.4846L89.8632 10.2765L88.2996 11.8578L89.5904 13.1573C88.9414 13.5674 88.1436 13.771 87.1912 13.7651C86.1906 13.7518 85.3564 13.5172 84.6898 13.0629C84.0233 12.6086 83.5245 11.9758 83.1934 11.1615C82.8623 10.3487 82.6961 9.38992 82.6961 8.28654C82.6961 7.18317 82.8638 6.21993 83.1978 5.39535C83.5318 4.57224 84.0321 3.93205 84.6942 3.47919C85.3564 3.02486 86.1892 2.80212 87.1897 2.8095C88.1903 2.82425 89.0245 3.05732 89.6911 3.51165C90.3576 3.96598 90.8579 4.59879 91.1919 5.41305C91.5259 6.22583 91.6936 7.18464 91.6936 8.28802C91.6936 9.39139 91.5259 10.3546 91.1919 11.1792L91.1948 11.1777Z" fill="#1B4551"></path>
<path d="M103.917 10.3285C103.917 11.0129 103.841 11.5779 103.69 12.0249C103.538 12.4718 103.335 12.8229 103.084 13.0781C102.832 13.3333 102.551 13.5132 102.24 13.618C101.929 13.7227 101.614 13.7743 101.298 13.7743C100.704 13.7743 100.233 13.6445 99.8845 13.3864C99.5359 13.1282 99.2733 12.7978 99.0969 12.3966C98.9204 11.9954 98.8081 11.5764 98.76 11.1398C98.7118 10.7032 98.687 10.3108 98.687 9.96119V4.5166H96.1609V10.8315C96.1609 11.1044 96.1828 11.4584 96.228 11.895C96.2732 12.3317 96.3709 12.7949 96.5226 13.2831C96.6743 13.7714 96.9091 14.2331 97.2271 14.6653C97.545 15.099 97.9724 15.4545 98.5105 15.7333C99.0487 16.012 99.7328 16.1522 100.561 16.1522C101.611 16.1522 102.494 15.9206 103.213 15.4559C103.598 15.2066 103.932 14.9101 104.218 14.5679V15.8277H106.423V4.5166H103.917V10.33V10.3285Z" fill="#1B4551"></path>
<path d="M116.332 15.8279H118.517V8.88459C118.517 8.39633 118.497 7.94348 118.454 7.52897C118.413 7.113 118.292 6.70734 118.093 6.30907C117.726 5.56267 117.166 5.02426 116.409 4.69678C115.654 4.36931 114.779 4.2041 113.784 4.2041C112.466 4.2041 111.418 4.49322 110.641 5.07293C109.864 5.65265 109.337 6.42118 109.061 7.37704L111.34 8.09984C111.526 7.52012 111.855 7.11152 112.323 6.87403C112.792 6.63654 113.278 6.51853 113.783 6.51853C114.618 6.51853 115.212 6.70292 115.564 7.07317C115.857 7.38146 116.023 7.83284 116.068 8.42436C115.617 8.49221 115.178 8.55564 114.751 8.6176C114.044 8.71938 113.387 8.82854 112.784 8.94802C112.18 9.0675 111.653 9.19879 111.204 9.3463C110.61 9.54838 110.128 9.80948 109.754 10.1266C109.381 10.4438 109.105 10.8214 108.926 11.258C108.746 11.6947 108.656 12.1844 108.656 12.7302C108.656 13.3512 108.799 13.9206 109.086 14.4369C109.372 14.9531 109.795 15.3677 110.355 15.6774C110.914 15.9887 111.598 16.1436 112.406 16.1436C113.414 16.1436 114.254 15.9533 114.928 15.5727C115.445 15.2806 115.912 14.8558 116.331 14.3056V15.8294L116.332 15.8279ZM116.017 11.1518C116 11.5678 115.925 11.9351 115.794 12.2567C115.711 12.5148 115.55 12.7907 115.313 13.0842C115.075 13.3777 114.755 13.6256 114.354 13.8276C113.953 14.0297 113.471 14.1315 112.905 14.1315C112.511 14.1315 112.181 14.0681 111.916 13.9427C111.65 13.8173 111.448 13.6477 111.31 13.4353C111.172 13.2229 111.103 12.9765 111.103 12.6962C111.103 12.4514 111.157 12.239 111.264 12.0575C111.37 11.8761 111.525 11.7153 111.725 11.5752C111.925 11.435 112.17 11.3141 112.46 11.2093C112.756 11.112 113.099 11.022 113.485 10.9424C113.872 10.8627 114.334 10.7771 114.874 10.6857C115.218 10.6282 115.607 10.5633 116.039 10.4939C116.035 10.6857 116.029 10.9025 116.019 11.1518H116.017Z" fill="#1B4551"></path>
<path d="M128.832 9.19887C128.88 9.63255 128.905 10.0264 128.905 10.3819V15.828H131.431V9.51306C131.431 9.24017 131.409 8.88615 131.364 8.44952C131.318 8.01289 131.221 7.55118 131.069 7.06145C130.917 6.57319 130.682 6.11149 130.365 5.67928C130.047 5.24708 129.619 4.8901 129.081 4.61131C128.543 4.33252 127.859 4.19238 127.03 4.19238C125.98 4.19238 125.098 4.42397 124.379 4.88863C123.994 5.13792 123.66 5.43442 123.374 5.77664V4.5169H121.147V15.828H123.673V10.0161C123.673 9.32425 123.749 8.75781 123.9 8.31381C124.052 7.8698 124.255 7.52168 124.506 7.26649C124.758 7.0113 125.039 6.83134 125.35 6.7266C125.661 6.62187 125.974 6.57024 126.292 6.57024C126.886 6.57024 127.357 6.70005 127.706 6.95819C128.054 7.21634 128.317 7.54676 128.493 7.94798C128.67 8.34921 128.782 8.76666 128.83 9.19887H128.832Z" fill="#1B4551"></path>
<path d="M137.354 1.37402H134.868V4.51598H132.838V6.49557H134.868V11.2085C134.868 11.8517 134.876 12.4269 134.889 12.9358C134.903 13.4462 135.038 13.9448 135.293 14.4331C135.583 14.9715 136.007 15.3639 136.566 15.6117C137.125 15.8595 137.759 15.9923 138.467 16.01C139.174 16.0277 139.897 15.9657 140.637 15.827V13.7118C139.94 13.8165 139.318 13.8445 138.773 13.7958C138.227 13.7472 137.831 13.5126 137.583 13.0937C137.451 12.8768 137.381 12.5981 137.37 12.2558C137.36 11.9136 137.354 11.5153 137.354 11.0625V6.49557H140.637V4.51598H137.354V1.37402Z" fill="#1B4551"></path>
<path d="M145.297 0.483398H142.801V2.79783H145.297V0.483398Z" fill="#1B4551"></path>
<path d="M145.297 4.5166H142.801V15.8277H145.297V4.5166Z" fill="#1B4551"></path>
<path d="M159.204 0.483398H156.708V2.79783H159.204V0.483398Z" fill="#1B4551"></path>
<path d="M159.204 4.5166H156.708V15.8277H159.204V4.5166Z" fill="#1B4551"></path>
<path d="M152.192 0.458192C151.834 0.475894 151.469 0.552599 151.1 0.688308C150.731 0.824017 150.387 1.07036 150.07 1.42733C149.815 1.70613 149.639 2.01737 149.542 2.35959C149.446 2.70182 149.388 3.04552 149.366 3.39069C149.344 3.73586 149.335 4.05301 149.335 4.33918V4.51766H147.534V6.49725H149.335V15.8287H151.831V6.49725H154.533V4.51766H151.831V3.79487C151.831 3.40396 151.946 3.08829 152.178 2.84638C152.408 2.60594 152.763 2.48498 153.24 2.48498H154.535V0.431641H153.136C152.866 0.431641 152.553 0.440491 152.194 0.458192H152.192Z" fill="#1B4551"></path>
<path d="M170.164 5.02378C169.353 4.47504 168.367 4.20215 167.208 4.20215C166.11 4.20215 165.144 4.45292 164.308 4.95592C163.473 5.45893 162.821 6.16551 162.351 7.07712C161.881 7.98873 161.646 9.06112 161.646 10.2973C161.646 11.4419 161.886 12.4553 162.366 13.3345C162.845 14.2136 163.513 14.9025 164.37 15.3981C165.226 15.8938 166.22 16.1416 167.352 16.1416C168.484 16.1416 169.414 15.8584 170.309 15.2934C171.203 14.7285 171.863 13.9349 172.292 12.9156L169.827 12.1618C169.585 12.6854 169.242 13.0852 168.798 13.361C168.353 13.6369 167.822 13.7741 167.208 13.7741C166.255 13.7741 165.53 13.4599 165.033 12.8315C164.644 12.3388 164.409 11.6839 164.324 10.8725H172.416C172.512 9.5184 172.364 8.34128 171.971 7.34263C171.577 6.34399 170.975 5.57104 170.164 5.0223V5.02378ZM164.384 8.96672C164.498 8.31325 164.714 7.77926 165.033 7.36919C165.53 6.73047 166.29 6.41037 167.311 6.41037C168.216 6.41037 168.879 6.69359 169.299 7.25855C169.598 7.65978 169.791 8.23064 169.881 8.96524H164.386L164.384 8.96672Z" fill="#1B4551"></path>
<path d="M182.057 0.746094V5.06666C182.02 5.03863 181.985 5.00913 181.947 4.98258C181.226 4.46187 180.334 4.20225 179.271 4.20225C178.208 4.20225 177.296 4.46187 176.516 4.98258C175.736 5.50329 175.133 6.21133 174.709 7.10819C174.284 8.00505 174.072 9.02582 174.072 10.172C174.072 11.3181 174.282 12.3182 174.703 13.2195C175.125 14.1208 175.718 14.8318 176.484 15.3555C177.25 15.8791 178.148 16.1402 179.176 16.1402C180.267 16.1402 181.182 15.8791 181.92 15.3555C182.077 15.2434 182.225 15.1224 182.365 14.9926V15.826H184.57V0.746094H182.054H182.057ZM182.083 12.1103C181.894 12.6693 181.593 13.103 181.182 13.4142C180.77 13.7255 180.231 13.8804 179.561 13.8804C178.892 13.8804 178.377 13.7166 177.956 13.3877C177.534 13.0602 177.222 12.6147 177.019 12.0527C176.815 11.4907 176.713 10.8638 176.713 10.1735C176.713 9.4831 176.816 8.86651 177.024 8.3045C177.231 7.74249 177.552 7.29553 177.986 6.96363C178.421 6.63174 178.974 6.46653 179.643 6.46653C180.277 6.46653 180.795 6.62141 181.196 6.93266C181.596 7.2439 181.892 7.67611 182.082 8.23075C182.271 8.78538 182.366 9.43295 182.366 10.1735C182.366 10.9139 182.271 11.5527 182.082 12.1103H182.083Z" fill="#1B4551"></path>
<path d="M84.6928 23.4036C85.3593 22.9493 86.1921 22.7236 87.1941 22.7236C88.3055 22.7236 89.2098 23.0009 89.9069 23.5555C90.6041 24.1102 91.0985 24.8802 91.3873 25.8655L93.9033 25.1634C93.4409 23.6898 92.6358 22.5185 91.4909 21.6497C90.3445 20.7809 88.9122 20.3457 87.1941 20.3457C85.7035 20.3457 84.4259 20.6761 83.3626 21.3355C82.2994 21.9949 81.4826 22.9153 80.9138 24.0954C80.345 25.2755 80.0591 26.6444 80.0591 28.2006C80.0591 29.7568 80.3435 31.1257 80.9138 32.3058C81.4841 33.4859 82.2994 34.4063 83.3626 35.0657C84.4259 35.7251 85.7021 36.0555 87.1941 36.0555C88.9137 36.0555 90.3459 35.6204 91.4909 34.7515C92.6358 33.8827 93.4409 32.7115 93.9033 31.2378L91.3873 30.5357C91.0971 31.5137 90.6041 32.2807 89.9069 32.8398C89.2098 33.3989 88.3055 33.6776 87.1941 33.6776C86.1936 33.6776 85.3579 33.4505 84.6884 32.9961C84.0189 32.5418 83.5158 31.9046 83.1818 31.0844C82.8478 30.2643 82.68 29.3025 82.68 28.1991C82.6873 27.0958 82.858 26.134 83.1934 25.3138C83.5274 24.4937 84.0291 23.8564 84.6942 23.4021L84.6928 23.4036Z" fill="#1B4551"></path>
<path d="M104.953 26.2212C104.587 25.4748 104.027 24.9364 103.27 24.6089C102.514 24.2814 101.639 24.1162 100.644 24.1162C99.326 24.1162 98.2788 24.4053 97.5014 24.985C96.724 25.5648 96.1975 26.3333 95.9218 27.2891L98.2 28.0119C98.3867 27.4322 98.7149 27.0236 99.1831 26.7861C99.6527 26.5486 100.138 26.4306 100.643 26.4306C101.479 26.4306 102.072 26.615 102.424 26.9853C102.717 27.2936 102.883 27.745 102.929 28.3365C102.478 28.4043 102.039 28.4678 101.611 28.5297C100.904 28.6315 100.248 28.7406 99.6439 28.8601C99.0401 28.9796 98.5136 29.1109 98.0644 29.2584C97.4708 29.4605 96.988 29.7216 96.6146 30.0387C96.2412 30.3559 95.9656 30.7335 95.7862 31.1701C95.6068 31.6068 95.5164 32.0965 95.5164 32.6423C95.5164 33.2633 95.6593 33.8327 95.9466 34.349C96.2325 34.8653 96.6554 35.2798 97.2155 35.5895C97.7741 35.9008 98.4582 36.0557 99.2662 36.0557C100.274 36.0557 101.114 35.8654 101.788 35.4848C102.306 35.1927 102.772 34.7679 103.191 34.2177V35.7415H105.376V28.7982C105.376 28.3099 105.355 27.8571 105.313 27.4426C105.272 27.0266 105.151 26.6209 104.951 26.2227L104.953 26.2212ZM102.877 31.0654C102.86 31.4814 102.786 31.8487 102.654 32.1702C102.571 32.4284 102.411 32.7042 102.173 32.9978C101.935 33.2913 101.616 33.5391 101.215 33.7412C100.814 33.9433 100.331 34.0451 99.765 34.0451C99.3712 34.0451 99.0416 33.9817 98.7761 33.8563C98.5107 33.7309 98.3079 33.5613 98.1708 33.3489C98.0323 33.1364 97.9637 32.8901 97.9637 32.6098C97.9637 32.365 98.0177 32.1525 98.1242 31.9711C98.2306 31.7897 98.3852 31.6289 98.5851 31.4888C98.7849 31.3486 99.0299 31.2277 99.3201 31.1229C99.6162 31.0256 99.959 30.9356 100.345 30.8559C100.732 30.7763 101.194 30.6907 101.734 30.5993C102.078 30.5417 102.468 30.4768 102.899 30.4075C102.895 30.5993 102.889 30.8161 102.879 31.0654H102.877Z" fill="#1B4551"></path>
<path d="M113.298 24.3834C112.947 24.4085 112.603 24.4748 112.269 24.5825C111.933 24.6902 111.628 24.8392 111.353 25.028C111.027 25.2301 110.75 25.4868 110.518 25.798C110.413 25.9396 110.32 26.0871 110.234 26.242V24.4306H108.029V35.7416H110.535V29.9917C110.535 29.5595 110.586 29.1553 110.689 28.7821C110.793 28.4089 110.953 28.0756 111.17 27.782C111.388 27.4885 111.669 27.248 112.015 27.0592C112.361 26.8497 112.749 26.7273 113.18 26.6919C113.612 26.6565 113.993 26.689 114.325 26.7863V24.4291C113.994 24.3731 113.651 24.3583 113.3 24.3819L113.298 24.3834Z" fill="#1B4551"></path>
<path d="M124.281 24.8966C123.504 24.3759 122.588 24.1163 121.532 24.1163C120.476 24.1163 119.576 24.3759 118.855 24.8966C118.817 24.9232 118.782 24.9527 118.746 24.9807V20.6602H116.23V35.7416H118.435V34.9081C118.575 35.0365 118.723 35.1589 118.88 35.271C119.618 35.7947 120.534 36.0558 121.624 36.0558C122.652 36.0558 123.55 35.7947 124.316 35.271C125.082 34.7474 125.675 34.0349 126.097 33.1351C126.518 32.2353 126.728 31.2189 126.728 30.0875C126.728 28.9561 126.514 27.9206 126.087 27.0237C125.658 26.1269 125.057 25.4174 124.279 24.8981L124.281 24.8966ZM123.784 31.9653C123.579 32.5273 123.267 32.9728 122.846 33.3003C122.424 33.6292 121.889 33.793 121.24 33.793C120.591 33.793 120.031 33.6381 119.62 33.3268C119.208 33.0156 118.908 32.5819 118.718 32.0228C118.529 31.4638 118.434 30.8177 118.434 30.086C118.434 29.3544 118.529 28.698 118.718 28.1433C118.908 27.5887 119.204 27.155 119.604 26.8452C120.003 26.534 120.521 26.3791 121.157 26.3791C121.826 26.3791 122.379 26.5443 122.814 26.8762C123.248 27.2081 123.569 27.6551 123.776 28.2171C123.983 28.7791 124.087 29.4031 124.087 30.086C124.087 30.769 123.985 31.4033 123.782 31.9653H123.784Z" fill="#1B4551"></path>
<path d="M136.846 24.8803C136.01 24.3714 135.03 24.1162 133.906 24.1162C132.781 24.1162 131.842 24.367 131.006 24.87C130.171 25.373 129.519 26.0707 129.049 26.9646C128.579 27.8585 128.344 28.8985 128.344 30.0859C128.344 31.2734 128.573 32.2838 129.033 33.1807C129.492 34.0776 130.138 34.7812 130.974 35.2916C131.81 35.8005 132.786 36.0557 133.904 36.0557C135.023 36.0557 136 35.8019 136.834 35.296C137.67 34.79 138.321 34.0879 138.786 33.191C139.253 32.2942 139.485 31.2586 139.485 30.0859C139.485 28.9132 139.253 27.888 138.79 26.9912C138.328 26.0943 137.679 25.3907 136.843 24.8803H136.846ZM136.121 32.6836C135.638 33.3533 134.899 33.6896 133.904 33.6896C132.91 33.6896 132.218 33.3636 131.724 32.7101C131.231 32.0567 130.983 31.1834 130.983 30.0859C130.983 29.3735 131.086 28.7465 131.294 28.2067C131.501 27.6653 131.82 27.2434 132.252 26.9395C132.684 26.6357 133.233 26.4837 133.903 26.4837C134.883 26.4837 135.618 26.8097 136.108 27.4632C136.598 28.1167 136.843 28.9899 136.843 30.0874C136.843 31.1849 136.601 32.0139 136.118 32.6851L136.121 32.6836Z" fill="#1B4551"></path>
<path d="M151.624 26.9745C151.472 26.4863 151.237 26.0246 150.919 25.5924C150.601 25.1602 150.174 24.8032 149.636 24.5244C149.098 24.2456 148.413 24.1055 147.585 24.1055C146.535 24.1055 145.653 24.3371 144.933 24.8017C144.548 25.051 144.214 25.3475 143.929 25.6897V24.43H141.701V35.741H144.228V29.9292C144.228 29.2373 144.303 28.6709 144.455 28.2269C144.607 27.7829 144.81 27.4348 145.06 27.1796C145.313 26.9244 145.594 26.7444 145.905 26.6397C146.216 26.535 146.529 26.4833 146.847 26.4833C147.441 26.4833 147.912 26.6131 148.26 26.8713C148.609 27.1294 148.871 27.4598 149.048 27.8611C149.224 28.2623 149.337 28.6798 149.385 29.112C149.433 29.5456 149.458 29.9395 149.458 30.295V35.741H151.984V29.4262C151.984 29.1533 151.962 28.7992 151.917 28.3626C151.872 27.926 151.774 27.4643 151.622 26.9745H151.624Z" fill="#1B4551"></path>
</g>
<defs>
<clipPath id="clip0_3361_1712">
<rect width="184.824" height="35.5573" fill="white" transform="translate(0 0.408203)"></rect>
</clipPath>
</defs>
</svg>