<svg xmlns="http://www.w3.org/2000/svg" width="393.036" height="535.085" viewBox="0 0 393.036 535.085" fill="none">
  <path d="M 155.179 0.014 C 238.188 -1.483 303.318 117.08 300.674 264.851 C 299.5 329.963 285.345 389.853 262.789 436.634 C 301.406 483.38 340.936 514.314 365.37 513.502 C 402.065 512.302 390.833 439.969 340.271 351.94 C 329.947 333.967 318.774 316.767 307.243 300.73 L 307.505 295.064 C 321.025 313.178 333.963 332.739 345.693 353.158 L 345.673 353.158 C 401.282 449.946 409.043 529.638 363.006 531.166 C 316.988 532.694 234.584 455.465 178.995 358.676 C 123.386 261.888 115.624 182.196 161.662 180.667 C 192.513 179.652 239.692 214.024 284.19 265.924 C 284.065 267.361 283.957 268.918 283.85 270.454 C 245.544 224.383 206.499 193.972 182.267 194.768 C 145.573 195.968 156.804 268.301 207.366 356.33 C 222.598 382.844 239.664 407.757 257.077 429.595 C 277.874 385.748 291.188 327.11 292.345 262.888 C 294.768 128.516 243.095 20.554 176.919 21.747 C 110.742 22.941 55.142 132.838 52.719 267.21 C 50.297 401.583 101.97 509.545 168.146 508.351 C 195.292 507.861 220.663 489.045 241.311 457.777 L 241.312 457.757 L 247.677 463.981 C 220.231 507.511 184.364 534.37 145.533 535.071 C 62.545 536.567 -2.585 418.004 0.079 270.253 C 2.743 122.502 72.171 1.511 155.179 0.014 Z" fill="currentColor" fill-rule="evenodd"></path>
</svg>